G04 #@! TF.GenerationSoftware,KiCad,Pcbnew,(5.1.2)-2*
G04 #@! TF.CreationDate,2019-08-27T22:51:35+12:00*
G04 #@! TF.ProjectId,CacPP_PIC10,43616350-505f-4504-9943-31302e6b6963,rev?*
G04 #@! TF.SameCoordinates,Original*
G04 #@! TF.FileFunction,Soldermask,Top*
G04 #@! TF.FilePolarity,Negative*
%FSLAX46Y46*%
G04 Gerber Fmt 4.6, Leading zero omitted, Abs format (unit mm)*
G04 Created by KiCad (PCBNEW (5.1.2)-2) date 2019-08-27 22:51:35*
%MOMM*%
%LPD*%
G04 APERTURE LIST*
%ADD10C,0.050000*%
%ADD11C,0.100000*%
G04 APERTURE END LIST*
D10*
X51666666Y-30000000D02*
G75*
G03X51666666Y-30000000I-1666666J0D01*
G01*
X47500000Y-30000000D02*
X52500000Y-30000000D01*
X50000000Y-27500000D02*
X50000000Y-32500000D01*
X50000000Y-46000000D02*
X53000000Y-46000000D01*
X50000000Y-30000000D02*
X50000000Y-46000000D01*
X53000000Y-30000000D02*
X50000000Y-30000000D01*
X75000000Y-30000000D02*
X53000000Y-30000000D01*
X75000000Y-46000000D02*
X53000000Y-46000000D01*
X75000000Y-30000000D02*
X75000000Y-46000000D01*
D11*
G36*
X67997861Y-43129498D02*
G01*
X68104446Y-43139995D01*
X68377960Y-43222965D01*
X68377963Y-43222966D01*
X68630028Y-43357698D01*
X68630029Y-43357699D01*
X68630033Y-43357701D01*
X68850976Y-43539024D01*
X69032299Y-43759967D01*
X69032301Y-43759971D01*
X69032302Y-43759972D01*
X69167034Y-44012037D01*
X69167035Y-44012040D01*
X69250005Y-44285554D01*
X69278020Y-44570000D01*
X69250005Y-44854446D01*
X69230565Y-44918530D01*
X69167034Y-45127963D01*
X69032302Y-45380028D01*
X69032299Y-45380033D01*
X68850976Y-45600976D01*
X68630033Y-45782299D01*
X68630029Y-45782301D01*
X68630028Y-45782302D01*
X68377963Y-45917034D01*
X68377960Y-45917035D01*
X68104446Y-46000005D01*
X67997861Y-46010502D01*
X67891278Y-46021000D01*
X64548722Y-46021000D01*
X64442139Y-46010502D01*
X64335554Y-46000005D01*
X64062040Y-45917035D01*
X64062037Y-45917034D01*
X63809972Y-45782302D01*
X63809971Y-45782301D01*
X63809967Y-45782299D01*
X63589024Y-45600976D01*
X63407701Y-45380033D01*
X63407698Y-45380028D01*
X63272966Y-45127963D01*
X63209435Y-44918530D01*
X63189995Y-44854446D01*
X63161980Y-44570000D01*
X63189995Y-44285554D01*
X63272965Y-44012040D01*
X63272966Y-44012037D01*
X63407698Y-43759972D01*
X63407699Y-43759971D01*
X63407701Y-43759967D01*
X63589024Y-43539024D01*
X63809967Y-43357701D01*
X63809971Y-43357699D01*
X63809972Y-43357698D01*
X64062037Y-43222966D01*
X64062040Y-43222965D01*
X64335554Y-43139995D01*
X64442139Y-43129498D01*
X64548722Y-43119000D01*
X67891278Y-43119000D01*
X67997861Y-43129498D01*
X67997861Y-43129498D01*
G37*
G36*
X60451000Y-45801000D02*
G01*
X55349000Y-45801000D01*
X55349000Y-43199000D01*
X60451000Y-43199000D01*
X60451000Y-45801000D01*
X60451000Y-45801000D01*
G37*
G36*
X53819271Y-42710103D02*
G01*
X53875635Y-42715654D01*
X54092600Y-42781470D01*
X54092602Y-42781471D01*
X54292555Y-42888347D01*
X54467818Y-43032182D01*
X54611653Y-43207445D01*
X54718529Y-43407398D01*
X54718530Y-43407400D01*
X54784346Y-43624365D01*
X54806569Y-43850000D01*
X54784346Y-44075635D01*
X54720667Y-44285556D01*
X54718529Y-44292602D01*
X54611653Y-44492555D01*
X54467818Y-44667818D01*
X54292555Y-44811653D01*
X54092602Y-44918529D01*
X54092600Y-44918530D01*
X53875635Y-44984346D01*
X53819271Y-44989897D01*
X53706545Y-45001000D01*
X51793455Y-45001000D01*
X51680729Y-44989897D01*
X51624365Y-44984346D01*
X51407400Y-44918530D01*
X51407398Y-44918529D01*
X51207445Y-44811653D01*
X51032182Y-44667818D01*
X50888347Y-44492555D01*
X50781471Y-44292602D01*
X50779334Y-44285556D01*
X50715654Y-44075635D01*
X50693431Y-43850000D01*
X50715654Y-43624365D01*
X50781470Y-43407400D01*
X50781471Y-43407398D01*
X50888347Y-43207445D01*
X51032182Y-43032182D01*
X51207445Y-42888347D01*
X51407398Y-42781471D01*
X51407400Y-42781470D01*
X51624365Y-42715654D01*
X51680729Y-42710103D01*
X51793455Y-42699000D01*
X53706545Y-42699000D01*
X53819271Y-42710103D01*
X53819271Y-42710103D01*
G37*
G36*
X56651000Y-42151000D02*
G01*
X54049000Y-42151000D01*
X54049000Y-40849000D01*
X56651000Y-40849000D01*
X56651000Y-42151000D01*
X56651000Y-42151000D01*
G37*
G36*
X64131000Y-42111000D02*
G01*
X61149000Y-42111000D01*
X61149000Y-40889000D01*
X64131000Y-40889000D01*
X64131000Y-42111000D01*
X64131000Y-42111000D01*
G37*
G36*
X58664499Y-40203445D02*
G01*
X58701995Y-40214820D01*
X58736554Y-40233292D01*
X58766847Y-40258153D01*
X58791708Y-40288446D01*
X58810180Y-40323005D01*
X58821555Y-40360501D01*
X58826000Y-40405638D01*
X58826000Y-41144362D01*
X58821555Y-41189499D01*
X58810180Y-41226995D01*
X58791708Y-41261554D01*
X58766847Y-41291847D01*
X58736554Y-41316708D01*
X58701995Y-41335180D01*
X58664499Y-41346555D01*
X58619362Y-41351000D01*
X57980638Y-41351000D01*
X57935501Y-41346555D01*
X57898005Y-41335180D01*
X57863446Y-41316708D01*
X57833153Y-41291847D01*
X57808292Y-41261554D01*
X57789820Y-41226995D01*
X57778445Y-41189499D01*
X57774000Y-41144362D01*
X57774000Y-40405638D01*
X57778445Y-40360501D01*
X57789820Y-40323005D01*
X57808292Y-40288446D01*
X57833153Y-40258153D01*
X57863446Y-40233292D01*
X57898005Y-40214820D01*
X57935501Y-40203445D01*
X57980638Y-40199000D01*
X58619362Y-40199000D01*
X58664499Y-40203445D01*
X58664499Y-40203445D01*
G37*
G36*
X52886601Y-39664397D02*
G01*
X52925305Y-39672096D01*
X52957340Y-39685365D01*
X53034680Y-39717400D01*
X53133115Y-39783173D01*
X53216827Y-39866885D01*
X53282600Y-39965320D01*
X53327904Y-40074696D01*
X53351000Y-40190805D01*
X53351000Y-40309195D01*
X53327904Y-40425304D01*
X53282600Y-40534680D01*
X53216827Y-40633115D01*
X53133115Y-40716827D01*
X53034680Y-40782600D01*
X52957340Y-40814635D01*
X52925305Y-40827904D01*
X52886601Y-40835603D01*
X52809195Y-40851000D01*
X52690805Y-40851000D01*
X52613399Y-40835603D01*
X52574695Y-40827904D01*
X52542660Y-40814635D01*
X52465320Y-40782600D01*
X52366885Y-40716827D01*
X52283173Y-40633115D01*
X52217400Y-40534680D01*
X52172096Y-40425304D01*
X52149000Y-40309195D01*
X52149000Y-40190805D01*
X52172096Y-40074696D01*
X52217400Y-39965320D01*
X52283173Y-39866885D01*
X52366885Y-39783173D01*
X52465320Y-39717400D01*
X52542660Y-39685365D01*
X52574695Y-39672096D01*
X52613399Y-39664397D01*
X52690805Y-39649000D01*
X52809195Y-39649000D01*
X52886601Y-39664397D01*
X52886601Y-39664397D01*
G37*
G36*
X56651000Y-39651000D02*
G01*
X54049000Y-39651000D01*
X54049000Y-38349000D01*
X56651000Y-38349000D01*
X56651000Y-39651000D01*
X56651000Y-39651000D01*
G37*
G36*
X64131000Y-39611000D02*
G01*
X61149000Y-39611000D01*
X61149000Y-38389000D01*
X64131000Y-38389000D01*
X64131000Y-39611000D01*
X64131000Y-39611000D01*
G37*
G36*
X58664499Y-38453445D02*
G01*
X58701995Y-38464820D01*
X58736554Y-38483292D01*
X58766847Y-38508153D01*
X58791708Y-38538446D01*
X58810180Y-38573005D01*
X58821555Y-38610501D01*
X58826000Y-38655638D01*
X58826000Y-39394362D01*
X58821555Y-39439499D01*
X58810180Y-39476995D01*
X58791708Y-39511554D01*
X58766847Y-39541847D01*
X58736554Y-39566708D01*
X58701995Y-39585180D01*
X58664499Y-39596555D01*
X58619362Y-39601000D01*
X57980638Y-39601000D01*
X57935501Y-39596555D01*
X57898005Y-39585180D01*
X57863446Y-39566708D01*
X57833153Y-39541847D01*
X57808292Y-39511554D01*
X57789820Y-39476995D01*
X57778445Y-39439499D01*
X57774000Y-39394362D01*
X57774000Y-38655638D01*
X57778445Y-38610501D01*
X57789820Y-38573005D01*
X57808292Y-38538446D01*
X57833153Y-38508153D01*
X57863446Y-38483292D01*
X57898005Y-38464820D01*
X57935501Y-38453445D01*
X57980638Y-38449000D01*
X58619362Y-38449000D01*
X58664499Y-38453445D01*
X58664499Y-38453445D01*
G37*
G36*
X60264499Y-38303445D02*
G01*
X60301995Y-38314820D01*
X60336554Y-38333292D01*
X60366847Y-38358153D01*
X60391708Y-38388446D01*
X60410180Y-38423005D01*
X60421555Y-38460501D01*
X60426000Y-38505638D01*
X60426000Y-39244362D01*
X60421555Y-39289499D01*
X60410180Y-39326995D01*
X60391708Y-39361554D01*
X60366847Y-39391847D01*
X60336554Y-39416708D01*
X60301995Y-39435180D01*
X60264499Y-39446555D01*
X60219362Y-39451000D01*
X59580638Y-39451000D01*
X59535501Y-39446555D01*
X59498005Y-39435180D01*
X59463446Y-39416708D01*
X59433153Y-39391847D01*
X59408292Y-39361554D01*
X59389820Y-39326995D01*
X59378445Y-39289499D01*
X59374000Y-39244362D01*
X59374000Y-38505638D01*
X59378445Y-38460501D01*
X59389820Y-38423005D01*
X59408292Y-38388446D01*
X59433153Y-38358153D01*
X59463446Y-38333292D01*
X59498005Y-38314820D01*
X59535501Y-38303445D01*
X59580638Y-38299000D01*
X60219362Y-38299000D01*
X60264499Y-38303445D01*
X60264499Y-38303445D01*
G37*
G36*
X60264499Y-36553445D02*
G01*
X60301995Y-36564820D01*
X60336554Y-36583292D01*
X60366847Y-36608153D01*
X60391708Y-36638446D01*
X60410180Y-36673005D01*
X60421555Y-36710501D01*
X60426000Y-36755638D01*
X60426000Y-37494362D01*
X60421555Y-37539499D01*
X60410180Y-37576995D01*
X60391708Y-37611554D01*
X60366847Y-37641847D01*
X60336554Y-37666708D01*
X60301995Y-37685180D01*
X60264499Y-37696555D01*
X60219362Y-37701000D01*
X59580638Y-37701000D01*
X59535501Y-37696555D01*
X59498005Y-37685180D01*
X59463446Y-37666708D01*
X59433153Y-37641847D01*
X59408292Y-37611554D01*
X59389820Y-37576995D01*
X59378445Y-37539499D01*
X59374000Y-37494362D01*
X59374000Y-36755638D01*
X59378445Y-36710501D01*
X59389820Y-36673005D01*
X59408292Y-36638446D01*
X59433153Y-36608153D01*
X59463446Y-36583292D01*
X59498005Y-36564820D01*
X59535501Y-36553445D01*
X59580638Y-36549000D01*
X60219362Y-36549000D01*
X60264499Y-36553445D01*
X60264499Y-36553445D01*
G37*
G36*
X56651000Y-37651000D02*
G01*
X54049000Y-37651000D01*
X54049000Y-36349000D01*
X56651000Y-36349000D01*
X56651000Y-37651000D01*
X56651000Y-37651000D01*
G37*
G36*
X64131000Y-37611000D02*
G01*
X61149000Y-37611000D01*
X61149000Y-36389000D01*
X64131000Y-36389000D01*
X64131000Y-37611000D01*
X64131000Y-37611000D01*
G37*
G36*
X58664499Y-36403445D02*
G01*
X58701995Y-36414820D01*
X58736554Y-36433292D01*
X58766847Y-36458153D01*
X58791708Y-36488446D01*
X58810180Y-36523005D01*
X58821555Y-36560501D01*
X58826000Y-36605638D01*
X58826000Y-37344362D01*
X58821555Y-37389499D01*
X58810180Y-37426995D01*
X58791708Y-37461554D01*
X58766847Y-37491847D01*
X58736554Y-37516708D01*
X58701995Y-37535180D01*
X58664499Y-37546555D01*
X58619362Y-37551000D01*
X57980638Y-37551000D01*
X57935501Y-37546555D01*
X57898005Y-37535180D01*
X57863446Y-37516708D01*
X57833153Y-37491847D01*
X57808292Y-37461554D01*
X57789820Y-37426995D01*
X57778445Y-37389499D01*
X57774000Y-37344362D01*
X57774000Y-36605638D01*
X57778445Y-36560501D01*
X57789820Y-36523005D01*
X57808292Y-36488446D01*
X57833153Y-36458153D01*
X57863446Y-36433292D01*
X57898005Y-36414820D01*
X57935501Y-36403445D01*
X57980638Y-36399000D01*
X58619362Y-36399000D01*
X58664499Y-36403445D01*
X58664499Y-36403445D01*
G37*
G36*
X52886601Y-35164397D02*
G01*
X52925305Y-35172096D01*
X52957340Y-35185365D01*
X53034680Y-35217400D01*
X53133115Y-35283173D01*
X53216827Y-35366885D01*
X53282600Y-35465320D01*
X53327904Y-35574696D01*
X53351000Y-35690805D01*
X53351000Y-35809195D01*
X53327904Y-35925304D01*
X53282600Y-36034680D01*
X53216827Y-36133115D01*
X53133115Y-36216827D01*
X53034680Y-36282600D01*
X52957340Y-36314635D01*
X52925305Y-36327904D01*
X52886601Y-36335603D01*
X52809195Y-36351000D01*
X52690805Y-36351000D01*
X52613399Y-36335603D01*
X52574695Y-36327904D01*
X52542660Y-36314635D01*
X52465320Y-36282600D01*
X52366885Y-36216827D01*
X52283173Y-36133115D01*
X52217400Y-36034680D01*
X52172096Y-35925304D01*
X52149000Y-35809195D01*
X52149000Y-35690805D01*
X52172096Y-35574696D01*
X52217400Y-35465320D01*
X52283173Y-35366885D01*
X52366885Y-35283173D01*
X52465320Y-35217400D01*
X52542660Y-35185365D01*
X52574695Y-35172096D01*
X52613399Y-35164397D01*
X52690805Y-35149000D01*
X52809195Y-35149000D01*
X52886601Y-35164397D01*
X52886601Y-35164397D01*
G37*
G36*
X58664499Y-34653445D02*
G01*
X58701995Y-34664820D01*
X58736554Y-34683292D01*
X58766847Y-34708153D01*
X58791708Y-34738446D01*
X58810180Y-34773005D01*
X58821555Y-34810501D01*
X58826000Y-34855638D01*
X58826000Y-35594362D01*
X58821555Y-35639499D01*
X58810180Y-35676995D01*
X58791708Y-35711554D01*
X58766847Y-35741847D01*
X58736554Y-35766708D01*
X58701995Y-35785180D01*
X58664499Y-35796555D01*
X58619362Y-35801000D01*
X57980638Y-35801000D01*
X57935501Y-35796555D01*
X57898005Y-35785180D01*
X57863446Y-35766708D01*
X57833153Y-35741847D01*
X57808292Y-35711554D01*
X57789820Y-35676995D01*
X57778445Y-35639499D01*
X57774000Y-35594362D01*
X57774000Y-34855638D01*
X57778445Y-34810501D01*
X57789820Y-34773005D01*
X57808292Y-34738446D01*
X57833153Y-34708153D01*
X57863446Y-34683292D01*
X57898005Y-34664820D01*
X57935501Y-34653445D01*
X57980638Y-34649000D01*
X58619362Y-34649000D01*
X58664499Y-34653445D01*
X58664499Y-34653445D01*
G37*
G36*
X56651000Y-35151000D02*
G01*
X54049000Y-35151000D01*
X54049000Y-33849000D01*
X56651000Y-33849000D01*
X56651000Y-35151000D01*
X56651000Y-35151000D01*
G37*
G36*
X64131000Y-35111000D02*
G01*
X61149000Y-35111000D01*
X61149000Y-33889000D01*
X64131000Y-33889000D01*
X64131000Y-35111000D01*
X64131000Y-35111000D01*
G37*
G36*
X53819271Y-31010103D02*
G01*
X53875635Y-31015654D01*
X54092600Y-31081470D01*
X54092602Y-31081471D01*
X54292555Y-31188347D01*
X54467818Y-31332182D01*
X54611653Y-31507445D01*
X54718529Y-31707398D01*
X54718530Y-31707400D01*
X54784346Y-31924365D01*
X54790610Y-31987963D01*
X54806569Y-32150000D01*
X54784346Y-32375634D01*
X54718529Y-32592602D01*
X54611653Y-32792555D01*
X54467818Y-32967818D01*
X54292555Y-33111653D01*
X54092602Y-33218529D01*
X54092600Y-33218530D01*
X53875635Y-33284346D01*
X53819271Y-33289897D01*
X53706545Y-33301000D01*
X51793455Y-33301000D01*
X51680729Y-33289897D01*
X51624365Y-33284346D01*
X51407400Y-33218530D01*
X51407398Y-33218529D01*
X51207445Y-33111653D01*
X51032182Y-32967818D01*
X50888347Y-32792555D01*
X50781471Y-32592602D01*
X50715654Y-32375634D01*
X50693431Y-32150000D01*
X50709390Y-31987963D01*
X50715654Y-31924365D01*
X50781470Y-31707400D01*
X50781471Y-31707398D01*
X50888347Y-31507445D01*
X51032182Y-31332182D01*
X51207445Y-31188347D01*
X51407398Y-31081471D01*
X51407400Y-31081470D01*
X51624365Y-31015654D01*
X51680729Y-31010103D01*
X51793455Y-30999000D01*
X53706545Y-30999000D01*
X53819271Y-31010103D01*
X53819271Y-31010103D01*
G37*
G36*
X67997861Y-29989498D02*
G01*
X68104446Y-29999995D01*
X68377960Y-30082965D01*
X68377963Y-30082966D01*
X68630028Y-30217698D01*
X68630029Y-30217699D01*
X68630033Y-30217701D01*
X68850976Y-30399024D01*
X69032299Y-30619967D01*
X69032301Y-30619971D01*
X69032302Y-30619972D01*
X69167034Y-30872037D01*
X69167035Y-30872040D01*
X69250005Y-31145554D01*
X69278020Y-31430000D01*
X69250005Y-31714446D01*
X69186326Y-31924365D01*
X69167034Y-31987963D01*
X69080423Y-32150000D01*
X69032299Y-32240033D01*
X68850976Y-32460976D01*
X68630033Y-32642299D01*
X68630029Y-32642301D01*
X68630028Y-32642302D01*
X68377963Y-32777034D01*
X68377960Y-32777035D01*
X68104446Y-32860005D01*
X67997861Y-32870503D01*
X67891278Y-32881000D01*
X64548722Y-32881000D01*
X64442139Y-32870503D01*
X64335554Y-32860005D01*
X64062040Y-32777035D01*
X64062037Y-32777034D01*
X63809972Y-32642302D01*
X63809971Y-32642301D01*
X63809967Y-32642299D01*
X63589024Y-32460976D01*
X63407701Y-32240033D01*
X63359577Y-32150000D01*
X63272966Y-31987963D01*
X63253674Y-31924365D01*
X63189995Y-31714446D01*
X63161980Y-31430000D01*
X63189995Y-31145554D01*
X63272965Y-30872040D01*
X63272966Y-30872037D01*
X63407698Y-30619972D01*
X63407699Y-30619971D01*
X63407701Y-30619967D01*
X63589024Y-30399024D01*
X63809967Y-30217701D01*
X63809971Y-30217699D01*
X63809972Y-30217698D01*
X64062037Y-30082966D01*
X64062040Y-30082965D01*
X64335554Y-29999995D01*
X64442139Y-29989498D01*
X64548722Y-29979000D01*
X67891278Y-29979000D01*
X67997861Y-29989498D01*
X67997861Y-29989498D01*
G37*
G36*
X62051000Y-32801000D02*
G01*
X56949000Y-32801000D01*
X56949000Y-30199000D01*
X62051000Y-30199000D01*
X62051000Y-32801000D01*
X62051000Y-32801000D01*
G37*
M02*
