G04 #@! TF.GenerationSoftware,KiCad,Pcbnew,(5.1.2)-2*
G04 #@! TF.CreationDate,2019-08-27T22:51:35+12:00*
G04 #@! TF.ProjectId,CacPP_PIC10,43616350-505f-4504-9943-31302e6b6963,rev?*
G04 #@! TF.SameCoordinates,Original*
G04 #@! TF.FileFunction,Soldermask,Bot*
G04 #@! TF.FilePolarity,Negative*
%FSLAX46Y46*%
G04 Gerber Fmt 4.6, Leading zero omitted, Abs format (unit mm)*
G04 Created by KiCad (PCBNEW (5.1.2)-2) date 2019-08-27 22:51:35*
%MOMM*%
%LPD*%
G04 APERTURE LIST*
%ADD10C,0.050000*%
%ADD11C,0.100000*%
G04 APERTURE END LIST*
D10*
X51666666Y-30000000D02*
G75*
G03X51666666Y-30000000I-1666666J0D01*
G01*
X47500000Y-30000000D02*
X52500000Y-30000000D01*
X50000000Y-27500000D02*
X50000000Y-32500000D01*
X50000000Y-46000000D02*
X53000000Y-46000000D01*
X50000000Y-30000000D02*
X50000000Y-46000000D01*
X53000000Y-30000000D02*
X50000000Y-30000000D01*
X75000000Y-30000000D02*
X53000000Y-30000000D01*
X75000000Y-46000000D02*
X53000000Y-46000000D01*
X75000000Y-30000000D02*
X75000000Y-46000000D01*
D11*
G36*
X67997861Y-43129498D02*
G01*
X68104446Y-43139995D01*
X68377960Y-43222965D01*
X68377963Y-43222966D01*
X68630028Y-43357698D01*
X68630029Y-43357699D01*
X68630033Y-43357701D01*
X68850976Y-43539024D01*
X69032299Y-43759967D01*
X69032301Y-43759971D01*
X69032302Y-43759972D01*
X69167034Y-44012037D01*
X69167035Y-44012040D01*
X69250005Y-44285554D01*
X69278020Y-44570000D01*
X69250005Y-44854446D01*
X69230565Y-44918530D01*
X69167034Y-45127963D01*
X69032302Y-45380028D01*
X69032299Y-45380033D01*
X68850976Y-45600976D01*
X68630033Y-45782299D01*
X68630029Y-45782301D01*
X68630028Y-45782302D01*
X68377963Y-45917034D01*
X68377960Y-45917035D01*
X68104446Y-46000005D01*
X67997861Y-46010502D01*
X67891278Y-46021000D01*
X64548722Y-46021000D01*
X64442139Y-46010502D01*
X64335554Y-46000005D01*
X64062040Y-45917035D01*
X64062037Y-45917034D01*
X63809972Y-45782302D01*
X63809971Y-45782301D01*
X63809967Y-45782299D01*
X63589024Y-45600976D01*
X63407701Y-45380033D01*
X63407698Y-45380028D01*
X63272966Y-45127963D01*
X63209435Y-44918530D01*
X63189995Y-44854446D01*
X63161980Y-44570000D01*
X63189995Y-44285554D01*
X63272965Y-44012040D01*
X63272966Y-44012037D01*
X63407698Y-43759972D01*
X63407699Y-43759971D01*
X63407701Y-43759967D01*
X63589024Y-43539024D01*
X63809967Y-43357701D01*
X63809971Y-43357699D01*
X63809972Y-43357698D01*
X64062037Y-43222966D01*
X64062040Y-43222965D01*
X64335554Y-43139995D01*
X64442139Y-43129498D01*
X64548722Y-43119000D01*
X67891278Y-43119000D01*
X67997861Y-43129498D01*
X67997861Y-43129498D01*
G37*
G36*
X53819271Y-42710103D02*
G01*
X53875635Y-42715654D01*
X54092600Y-42781470D01*
X54092602Y-42781471D01*
X54292555Y-42888347D01*
X54467818Y-43032182D01*
X54611653Y-43207445D01*
X54708506Y-43388646D01*
X54718530Y-43407400D01*
X54784346Y-43624365D01*
X54806569Y-43850000D01*
X54784346Y-44075635D01*
X54720667Y-44285556D01*
X54718529Y-44292602D01*
X54611653Y-44492555D01*
X54467818Y-44667818D01*
X54292555Y-44811653D01*
X54092602Y-44918529D01*
X54092600Y-44918530D01*
X53875635Y-44984346D01*
X53819271Y-44989897D01*
X53706545Y-45001000D01*
X51793455Y-45001000D01*
X51680729Y-44989897D01*
X51624365Y-44984346D01*
X51407400Y-44918530D01*
X51407398Y-44918529D01*
X51207445Y-44811653D01*
X51032182Y-44667818D01*
X50888347Y-44492555D01*
X50781471Y-44292602D01*
X50779334Y-44285556D01*
X50715654Y-44075635D01*
X50693431Y-43850000D01*
X50715654Y-43624365D01*
X50781470Y-43407400D01*
X50791494Y-43388646D01*
X50888347Y-43207445D01*
X51032182Y-43032182D01*
X51207445Y-42888347D01*
X51407398Y-42781471D01*
X51407400Y-42781470D01*
X51624365Y-42715654D01*
X51680729Y-42710103D01*
X51793455Y-42699000D01*
X53706545Y-42699000D01*
X53819271Y-42710103D01*
X53819271Y-42710103D01*
G37*
G36*
X58601000Y-44901000D02*
G01*
X57599000Y-44901000D01*
X57599000Y-43999000D01*
X58601000Y-43999000D01*
X58601000Y-44901000D01*
X58601000Y-44901000D01*
G37*
G36*
X60601000Y-43951000D02*
G01*
X59599000Y-43951000D01*
X59599000Y-43049000D01*
X60601000Y-43049000D01*
X60601000Y-43951000D01*
X60601000Y-43951000D01*
G37*
G36*
X71264499Y-42403445D02*
G01*
X71301995Y-42414820D01*
X71336554Y-42433292D01*
X71366847Y-42458153D01*
X71391708Y-42488446D01*
X71410180Y-42523005D01*
X71421555Y-42560501D01*
X71426000Y-42605638D01*
X71426000Y-43344362D01*
X71421555Y-43389499D01*
X71410180Y-43426995D01*
X71391708Y-43461554D01*
X71366847Y-43491847D01*
X71336554Y-43516708D01*
X71301995Y-43535180D01*
X71264499Y-43546555D01*
X71219362Y-43551000D01*
X70580638Y-43551000D01*
X70535501Y-43546555D01*
X70498005Y-43535180D01*
X70463446Y-43516708D01*
X70433153Y-43491847D01*
X70408292Y-43461554D01*
X70389820Y-43426995D01*
X70378445Y-43389499D01*
X70374000Y-43344362D01*
X70374000Y-42605638D01*
X70378445Y-42560501D01*
X70389820Y-42523005D01*
X70408292Y-42488446D01*
X70433153Y-42458153D01*
X70463446Y-42433292D01*
X70498005Y-42414820D01*
X70535501Y-42403445D01*
X70580638Y-42399000D01*
X71219362Y-42399000D01*
X71264499Y-42403445D01*
X71264499Y-42403445D01*
G37*
G36*
X74876000Y-43531000D02*
G01*
X72274000Y-43531000D01*
X72274000Y-42429000D01*
X74876000Y-42429000D01*
X74876000Y-43531000D01*
X74876000Y-43531000D01*
G37*
G36*
X58601000Y-43001000D02*
G01*
X57599000Y-43001000D01*
X57599000Y-42099000D01*
X58601000Y-42099000D01*
X58601000Y-43001000D01*
X58601000Y-43001000D01*
G37*
G36*
X71264499Y-40653445D02*
G01*
X71301995Y-40664820D01*
X71336554Y-40683292D01*
X71366847Y-40708153D01*
X71391708Y-40738446D01*
X71410180Y-40773005D01*
X71421555Y-40810501D01*
X71426000Y-40855638D01*
X71426000Y-41594362D01*
X71421555Y-41639499D01*
X71410180Y-41676995D01*
X71391708Y-41711554D01*
X71366847Y-41741847D01*
X71336554Y-41766708D01*
X71301995Y-41785180D01*
X71264499Y-41796555D01*
X71219362Y-41801000D01*
X70580638Y-41801000D01*
X70535501Y-41796555D01*
X70498005Y-41785180D01*
X70463446Y-41766708D01*
X70433153Y-41741847D01*
X70408292Y-41711554D01*
X70389820Y-41676995D01*
X70378445Y-41639499D01*
X70374000Y-41594362D01*
X70374000Y-40855638D01*
X70378445Y-40810501D01*
X70389820Y-40773005D01*
X70408292Y-40738446D01*
X70433153Y-40708153D01*
X70463446Y-40683292D01*
X70498005Y-40664820D01*
X70535501Y-40653445D01*
X70580638Y-40649000D01*
X71219362Y-40649000D01*
X71264499Y-40653445D01*
X71264499Y-40653445D01*
G37*
G36*
X67464499Y-40403445D02*
G01*
X67501995Y-40414820D01*
X67536554Y-40433292D01*
X67566847Y-40458153D01*
X67591708Y-40488446D01*
X67610180Y-40523005D01*
X67621555Y-40560501D01*
X67626000Y-40605638D01*
X67626000Y-41344362D01*
X67621555Y-41389499D01*
X67610180Y-41426995D01*
X67591708Y-41461554D01*
X67566847Y-41491847D01*
X67536554Y-41516708D01*
X67501995Y-41535180D01*
X67464499Y-41546555D01*
X67419362Y-41551000D01*
X66780638Y-41551000D01*
X66735501Y-41546555D01*
X66698005Y-41535180D01*
X66663446Y-41516708D01*
X66633153Y-41491847D01*
X66608292Y-41461554D01*
X66589820Y-41426995D01*
X66578445Y-41389499D01*
X66574000Y-41344362D01*
X66574000Y-40605638D01*
X66578445Y-40560501D01*
X66589820Y-40523005D01*
X66608292Y-40488446D01*
X66633153Y-40458153D01*
X66663446Y-40433292D01*
X66698005Y-40414820D01*
X66735501Y-40403445D01*
X66780638Y-40399000D01*
X67419362Y-40399000D01*
X67464499Y-40403445D01*
X67464499Y-40403445D01*
G37*
G36*
X69364499Y-40403445D02*
G01*
X69401995Y-40414820D01*
X69436554Y-40433292D01*
X69466847Y-40458153D01*
X69491708Y-40488446D01*
X69510180Y-40523005D01*
X69521555Y-40560501D01*
X69526000Y-40605638D01*
X69526000Y-41344362D01*
X69521555Y-41389499D01*
X69510180Y-41426995D01*
X69491708Y-41461554D01*
X69466847Y-41491847D01*
X69436554Y-41516708D01*
X69401995Y-41535180D01*
X69364499Y-41546555D01*
X69319362Y-41551000D01*
X68680638Y-41551000D01*
X68635501Y-41546555D01*
X68598005Y-41535180D01*
X68563446Y-41516708D01*
X68533153Y-41491847D01*
X68508292Y-41461554D01*
X68489820Y-41426995D01*
X68478445Y-41389499D01*
X68474000Y-41344362D01*
X68474000Y-40605638D01*
X68478445Y-40560501D01*
X68489820Y-40523005D01*
X68508292Y-40488446D01*
X68533153Y-40458153D01*
X68563446Y-40433292D01*
X68598005Y-40414820D01*
X68635501Y-40403445D01*
X68680638Y-40399000D01*
X69319362Y-40399000D01*
X69364499Y-40403445D01*
X69364499Y-40403445D01*
G37*
G36*
X58601000Y-41101000D02*
G01*
X57599000Y-41101000D01*
X57599000Y-40199000D01*
X58601000Y-40199000D01*
X58601000Y-41101000D01*
X58601000Y-41101000D01*
G37*
G36*
X74876000Y-40991000D02*
G01*
X72274000Y-40991000D01*
X72274000Y-39889000D01*
X74876000Y-39889000D01*
X74876000Y-40991000D01*
X74876000Y-40991000D01*
G37*
G36*
X52886601Y-39664397D02*
G01*
X52925305Y-39672096D01*
X52954321Y-39684115D01*
X53034680Y-39717400D01*
X53133115Y-39783173D01*
X53216827Y-39866885D01*
X53282600Y-39965320D01*
X53314635Y-40042660D01*
X53327904Y-40074695D01*
X53351000Y-40190807D01*
X53351000Y-40309193D01*
X53327904Y-40425305D01*
X53314635Y-40457340D01*
X53282600Y-40534680D01*
X53216827Y-40633115D01*
X53133115Y-40716827D01*
X53034680Y-40782600D01*
X52965260Y-40811354D01*
X52925305Y-40827904D01*
X52886601Y-40835603D01*
X52809195Y-40851000D01*
X52690805Y-40851000D01*
X52613399Y-40835603D01*
X52574695Y-40827904D01*
X52534740Y-40811354D01*
X52465320Y-40782600D01*
X52366885Y-40716827D01*
X52283173Y-40633115D01*
X52217400Y-40534680D01*
X52185365Y-40457340D01*
X52172096Y-40425305D01*
X52149000Y-40309193D01*
X52149000Y-40190807D01*
X52172096Y-40074695D01*
X52185365Y-40042660D01*
X52217400Y-39965320D01*
X52283173Y-39866885D01*
X52366885Y-39783173D01*
X52465320Y-39717400D01*
X52545679Y-39684115D01*
X52574695Y-39672096D01*
X52613399Y-39664397D01*
X52690805Y-39649000D01*
X52809195Y-39649000D01*
X52886601Y-39664397D01*
X52886601Y-39664397D01*
G37*
G36*
X60601000Y-40151000D02*
G01*
X59599000Y-40151000D01*
X59599000Y-39249000D01*
X60601000Y-39249000D01*
X60601000Y-40151000D01*
X60601000Y-40151000D01*
G37*
G36*
X69364499Y-38653445D02*
G01*
X69401995Y-38664820D01*
X69436554Y-38683292D01*
X69466847Y-38708153D01*
X69491708Y-38738446D01*
X69510180Y-38773005D01*
X69521555Y-38810501D01*
X69526000Y-38855638D01*
X69526000Y-39594362D01*
X69521555Y-39639499D01*
X69510180Y-39676995D01*
X69491708Y-39711554D01*
X69466847Y-39741847D01*
X69436554Y-39766708D01*
X69401995Y-39785180D01*
X69364499Y-39796555D01*
X69319362Y-39801000D01*
X68680638Y-39801000D01*
X68635501Y-39796555D01*
X68598005Y-39785180D01*
X68563446Y-39766708D01*
X68533153Y-39741847D01*
X68508292Y-39711554D01*
X68489820Y-39676995D01*
X68478445Y-39639499D01*
X68474000Y-39594362D01*
X68474000Y-38855638D01*
X68478445Y-38810501D01*
X68489820Y-38773005D01*
X68508292Y-38738446D01*
X68533153Y-38708153D01*
X68563446Y-38683292D01*
X68598005Y-38664820D01*
X68635501Y-38653445D01*
X68680638Y-38649000D01*
X69319362Y-38649000D01*
X69364499Y-38653445D01*
X69364499Y-38653445D01*
G37*
G36*
X67464499Y-38653445D02*
G01*
X67501995Y-38664820D01*
X67536554Y-38683292D01*
X67566847Y-38708153D01*
X67591708Y-38738446D01*
X67610180Y-38773005D01*
X67621555Y-38810501D01*
X67626000Y-38855638D01*
X67626000Y-39594362D01*
X67621555Y-39639499D01*
X67610180Y-39676995D01*
X67591708Y-39711554D01*
X67566847Y-39741847D01*
X67536554Y-39766708D01*
X67501995Y-39785180D01*
X67464499Y-39796555D01*
X67419362Y-39801000D01*
X66780638Y-39801000D01*
X66735501Y-39796555D01*
X66698005Y-39785180D01*
X66663446Y-39766708D01*
X66633153Y-39741847D01*
X66608292Y-39711554D01*
X66589820Y-39676995D01*
X66578445Y-39639499D01*
X66574000Y-39594362D01*
X66574000Y-38855638D01*
X66578445Y-38810501D01*
X66589820Y-38773005D01*
X66608292Y-38738446D01*
X66633153Y-38708153D01*
X66663446Y-38683292D01*
X66698005Y-38664820D01*
X66735501Y-38653445D01*
X66780638Y-38649000D01*
X67419362Y-38649000D01*
X67464499Y-38653445D01*
X67464499Y-38653445D01*
G37*
G36*
X58601000Y-39201000D02*
G01*
X57599000Y-39201000D01*
X57599000Y-38299000D01*
X58601000Y-38299000D01*
X58601000Y-39201000D01*
X58601000Y-39201000D01*
G37*
G36*
X74876000Y-38451000D02*
G01*
X72274000Y-38451000D01*
X72274000Y-37349000D01*
X74876000Y-37349000D01*
X74876000Y-38451000D01*
X74876000Y-38451000D01*
G37*
G36*
X64326000Y-38281000D02*
G01*
X61674000Y-38281000D01*
X61674000Y-37119000D01*
X64326000Y-37119000D01*
X64326000Y-38281000D01*
X64326000Y-38281000D01*
G37*
G36*
X66933642Y-36329781D02*
G01*
X67079414Y-36390162D01*
X67079416Y-36390163D01*
X67210608Y-36477822D01*
X67322178Y-36589392D01*
X67408792Y-36719020D01*
X67409838Y-36720586D01*
X67470219Y-36866358D01*
X67501000Y-37021107D01*
X67501000Y-37178893D01*
X67470219Y-37333642D01*
X67463857Y-37349000D01*
X67409837Y-37479416D01*
X67322178Y-37610608D01*
X67210608Y-37722178D01*
X67079416Y-37809837D01*
X67079415Y-37809838D01*
X67079414Y-37809838D01*
X66933642Y-37870219D01*
X66778893Y-37901000D01*
X66621107Y-37901000D01*
X66466358Y-37870219D01*
X66320586Y-37809838D01*
X66320585Y-37809838D01*
X66320584Y-37809837D01*
X66189392Y-37722178D01*
X66077822Y-37610608D01*
X65990163Y-37479416D01*
X65936143Y-37349000D01*
X65929781Y-37333642D01*
X65899000Y-37178893D01*
X65899000Y-37021107D01*
X65929781Y-36866358D01*
X65990162Y-36720586D01*
X65991208Y-36719020D01*
X66077822Y-36589392D01*
X66189392Y-36477822D01*
X66320584Y-36390163D01*
X66320586Y-36390162D01*
X66466358Y-36329781D01*
X66621107Y-36299000D01*
X66778893Y-36299000D01*
X66933642Y-36329781D01*
X66933642Y-36329781D01*
G37*
G36*
X71164499Y-36703445D02*
G01*
X71201995Y-36714820D01*
X71236554Y-36733292D01*
X71266847Y-36758153D01*
X71291708Y-36788446D01*
X71310180Y-36823005D01*
X71321555Y-36860501D01*
X71326000Y-36905638D01*
X71326000Y-37644362D01*
X71321555Y-37689499D01*
X71310180Y-37726995D01*
X71291708Y-37761554D01*
X71266847Y-37791847D01*
X71236554Y-37816708D01*
X71201995Y-37835180D01*
X71164499Y-37846555D01*
X71119362Y-37851000D01*
X70480638Y-37851000D01*
X70435501Y-37846555D01*
X70398005Y-37835180D01*
X70363446Y-37816708D01*
X70333153Y-37791847D01*
X70308292Y-37761554D01*
X70289820Y-37726995D01*
X70278445Y-37689499D01*
X70274000Y-37644362D01*
X70274000Y-36905638D01*
X70278445Y-36860501D01*
X70289820Y-36823005D01*
X70308292Y-36788446D01*
X70333153Y-36758153D01*
X70363446Y-36733292D01*
X70398005Y-36714820D01*
X70435501Y-36703445D01*
X70480638Y-36699000D01*
X71119362Y-36699000D01*
X71164499Y-36703445D01*
X71164499Y-36703445D01*
G37*
G36*
X69364499Y-36703445D02*
G01*
X69401995Y-36714820D01*
X69436554Y-36733292D01*
X69466847Y-36758153D01*
X69491708Y-36788446D01*
X69510180Y-36823005D01*
X69521555Y-36860501D01*
X69526000Y-36905638D01*
X69526000Y-37644362D01*
X69521555Y-37689499D01*
X69510180Y-37726995D01*
X69491708Y-37761554D01*
X69466847Y-37791847D01*
X69436554Y-37816708D01*
X69401995Y-37835180D01*
X69364499Y-37846555D01*
X69319362Y-37851000D01*
X68680638Y-37851000D01*
X68635501Y-37846555D01*
X68598005Y-37835180D01*
X68563446Y-37816708D01*
X68533153Y-37791847D01*
X68508292Y-37761554D01*
X68489820Y-37726995D01*
X68478445Y-37689499D01*
X68474000Y-37644362D01*
X68474000Y-36905638D01*
X68478445Y-36860501D01*
X68489820Y-36823005D01*
X68508292Y-36788446D01*
X68533153Y-36758153D01*
X68563446Y-36733292D01*
X68598005Y-36714820D01*
X68635501Y-36703445D01*
X68680638Y-36699000D01*
X69319362Y-36699000D01*
X69364499Y-36703445D01*
X69364499Y-36703445D01*
G37*
G36*
X52867968Y-35160691D02*
G01*
X52925305Y-35172096D01*
X52957340Y-35185365D01*
X53034680Y-35217400D01*
X53133115Y-35283173D01*
X53216827Y-35366885D01*
X53282600Y-35465320D01*
X53314635Y-35542660D01*
X53327904Y-35574695D01*
X53351000Y-35690807D01*
X53351000Y-35809193D01*
X53327904Y-35925305D01*
X53314635Y-35957340D01*
X53282600Y-36034680D01*
X53216827Y-36133115D01*
X53133115Y-36216827D01*
X53034680Y-36282600D01*
X52957340Y-36314635D01*
X52925305Y-36327904D01*
X52886601Y-36335603D01*
X52809195Y-36351000D01*
X52690805Y-36351000D01*
X52613399Y-36335603D01*
X52574695Y-36327904D01*
X52542660Y-36314635D01*
X52465320Y-36282600D01*
X52366885Y-36216827D01*
X52283173Y-36133115D01*
X52217400Y-36034680D01*
X52185365Y-35957340D01*
X52172096Y-35925305D01*
X52149000Y-35809193D01*
X52149000Y-35690807D01*
X52172096Y-35574695D01*
X52185365Y-35542660D01*
X52217400Y-35465320D01*
X52283173Y-35366885D01*
X52366885Y-35283173D01*
X52465320Y-35217400D01*
X52542660Y-35185365D01*
X52574695Y-35172096D01*
X52632032Y-35160691D01*
X52690805Y-35149000D01*
X52809195Y-35149000D01*
X52867968Y-35160691D01*
X52867968Y-35160691D01*
G37*
G36*
X69364499Y-34953445D02*
G01*
X69401995Y-34964820D01*
X69436554Y-34983292D01*
X69466847Y-35008153D01*
X69491708Y-35038446D01*
X69510180Y-35073005D01*
X69521555Y-35110501D01*
X69526000Y-35155638D01*
X69526000Y-35894362D01*
X69521555Y-35939499D01*
X69510180Y-35976995D01*
X69491708Y-36011554D01*
X69466847Y-36041847D01*
X69436554Y-36066708D01*
X69401995Y-36085180D01*
X69364499Y-36096555D01*
X69319362Y-36101000D01*
X68680638Y-36101000D01*
X68635501Y-36096555D01*
X68598005Y-36085180D01*
X68563446Y-36066708D01*
X68533153Y-36041847D01*
X68508292Y-36011554D01*
X68489820Y-35976995D01*
X68478445Y-35939499D01*
X68474000Y-35894362D01*
X68474000Y-35155638D01*
X68478445Y-35110501D01*
X68489820Y-35073005D01*
X68508292Y-35038446D01*
X68533153Y-35008153D01*
X68563446Y-34983292D01*
X68598005Y-34964820D01*
X68635501Y-34953445D01*
X68680638Y-34949000D01*
X69319362Y-34949000D01*
X69364499Y-34953445D01*
X69364499Y-34953445D01*
G37*
G36*
X71164499Y-34953445D02*
G01*
X71201995Y-34964820D01*
X71236554Y-34983292D01*
X71266847Y-35008153D01*
X71291708Y-35038446D01*
X71310180Y-35073005D01*
X71321555Y-35110501D01*
X71326000Y-35155638D01*
X71326000Y-35894362D01*
X71321555Y-35939499D01*
X71310180Y-35976995D01*
X71291708Y-36011554D01*
X71266847Y-36041847D01*
X71236554Y-36066708D01*
X71201995Y-36085180D01*
X71164499Y-36096555D01*
X71119362Y-36101000D01*
X70480638Y-36101000D01*
X70435501Y-36096555D01*
X70398005Y-36085180D01*
X70363446Y-36066708D01*
X70333153Y-36041847D01*
X70308292Y-36011554D01*
X70289820Y-35976995D01*
X70278445Y-35939499D01*
X70274000Y-35894362D01*
X70274000Y-35155638D01*
X70278445Y-35110501D01*
X70289820Y-35073005D01*
X70308292Y-35038446D01*
X70333153Y-35008153D01*
X70363446Y-34983292D01*
X70398005Y-34964820D01*
X70435501Y-34953445D01*
X70480638Y-34949000D01*
X71119362Y-34949000D01*
X71164499Y-34953445D01*
X71164499Y-34953445D01*
G37*
G36*
X64326000Y-36081000D02*
G01*
X61674000Y-36081000D01*
X61674000Y-34919000D01*
X64326000Y-34919000D01*
X64326000Y-36081000D01*
X64326000Y-36081000D01*
G37*
G36*
X74876000Y-35911000D02*
G01*
X72274000Y-35911000D01*
X72274000Y-34809000D01*
X74876000Y-34809000D01*
X74876000Y-35911000D01*
X74876000Y-35911000D01*
G37*
G36*
X60051000Y-35751000D02*
G01*
X59049000Y-35751000D01*
X59049000Y-34449000D01*
X60051000Y-34449000D01*
X60051000Y-35751000D01*
X60051000Y-35751000D01*
G37*
G36*
X56751000Y-35751000D02*
G01*
X55749000Y-35751000D01*
X55749000Y-34449000D01*
X56751000Y-34449000D01*
X56751000Y-35751000D01*
X56751000Y-35751000D01*
G37*
G36*
X74876000Y-33371000D02*
G01*
X72274000Y-33371000D01*
X72274000Y-32269000D01*
X74876000Y-32269000D01*
X74876000Y-33371000D01*
X74876000Y-33371000D01*
G37*
G36*
X53819271Y-31010103D02*
G01*
X53875635Y-31015654D01*
X54092600Y-31081470D01*
X54092602Y-31081471D01*
X54292555Y-31188347D01*
X54467818Y-31332182D01*
X54611653Y-31507445D01*
X54718529Y-31707398D01*
X54718530Y-31707400D01*
X54784346Y-31924365D01*
X54790610Y-31987963D01*
X54806569Y-32150000D01*
X54784346Y-32375634D01*
X54718529Y-32592602D01*
X54611653Y-32792555D01*
X54467818Y-32967818D01*
X54292555Y-33111653D01*
X54092602Y-33218529D01*
X54092600Y-33218530D01*
X53875635Y-33284346D01*
X53819271Y-33289897D01*
X53706545Y-33301000D01*
X51793455Y-33301000D01*
X51680729Y-33289897D01*
X51624365Y-33284346D01*
X51407400Y-33218530D01*
X51407398Y-33218529D01*
X51207445Y-33111653D01*
X51032182Y-32967818D01*
X50888347Y-32792555D01*
X50781471Y-32592602D01*
X50715654Y-32375634D01*
X50693431Y-32150000D01*
X50709390Y-31987963D01*
X50715654Y-31924365D01*
X50781470Y-31707400D01*
X50781471Y-31707398D01*
X50888347Y-31507445D01*
X51032182Y-31332182D01*
X51207445Y-31188347D01*
X51407398Y-31081471D01*
X51407400Y-31081470D01*
X51624365Y-31015654D01*
X51680729Y-31010103D01*
X51793455Y-30999000D01*
X53706545Y-30999000D01*
X53819271Y-31010103D01*
X53819271Y-31010103D01*
G37*
G36*
X67997861Y-29989498D02*
G01*
X68104446Y-29999995D01*
X68377960Y-30082965D01*
X68377963Y-30082966D01*
X68630028Y-30217698D01*
X68630029Y-30217699D01*
X68630033Y-30217701D01*
X68850976Y-30399024D01*
X69032299Y-30619967D01*
X69032301Y-30619971D01*
X69032302Y-30619972D01*
X69167034Y-30872037D01*
X69167035Y-30872040D01*
X69250005Y-31145554D01*
X69278020Y-31430000D01*
X69250005Y-31714446D01*
X69186326Y-31924365D01*
X69167034Y-31987963D01*
X69080423Y-32150000D01*
X69032299Y-32240033D01*
X68850976Y-32460976D01*
X68630033Y-32642299D01*
X68630029Y-32642301D01*
X68630028Y-32642302D01*
X68377963Y-32777034D01*
X68377960Y-32777035D01*
X68104446Y-32860005D01*
X67997861Y-32870503D01*
X67891278Y-32881000D01*
X64548722Y-32881000D01*
X64442139Y-32870503D01*
X64335554Y-32860005D01*
X64062040Y-32777035D01*
X64062037Y-32777034D01*
X63809972Y-32642302D01*
X63809971Y-32642301D01*
X63809967Y-32642299D01*
X63589024Y-32460976D01*
X63407701Y-32240033D01*
X63359577Y-32150000D01*
X63272966Y-31987963D01*
X63253674Y-31924365D01*
X63189995Y-31714446D01*
X63161980Y-31430000D01*
X63189995Y-31145554D01*
X63272965Y-30872040D01*
X63272966Y-30872037D01*
X63407698Y-30619972D01*
X63407699Y-30619971D01*
X63407701Y-30619967D01*
X63589024Y-30399024D01*
X63809967Y-30217701D01*
X63809971Y-30217699D01*
X63809972Y-30217698D01*
X64062037Y-30082966D01*
X64062040Y-30082965D01*
X64335554Y-29999995D01*
X64442139Y-29989498D01*
X64548722Y-29979000D01*
X67891278Y-29979000D01*
X67997861Y-29989498D01*
X67997861Y-29989498D01*
G37*
M02*
