G04 #@! TF.GenerationSoftware,KiCad,Pcbnew,(5.1.2)-2*
G04 #@! TF.CreationDate,2019-08-27T22:51:35+12:00*
G04 #@! TF.ProjectId,CacPP_PIC10,43616350-505f-4504-9943-31302e6b6963,rev?*
G04 #@! TF.SameCoordinates,Original*
G04 #@! TF.FileFunction,Legend,Top*
G04 #@! TF.FilePolarity,Positive*
%FSLAX46Y46*%
G04 Gerber Fmt 4.6, Leading zero omitted, Abs format (unit mm)*
G04 Created by KiCad (PCBNEW (5.1.2)-2) date 2019-08-27 22:51:35*
%MOMM*%
%LPD*%
G04 APERTURE LIST*
%ADD10C,0.050000*%
%ADD11C,0.200000*%
%ADD12C,0.120000*%
%ADD13C,0.254000*%
%ADD14C,0.150000*%
G04 APERTURE END LIST*
D10*
X51666666Y-30000000D02*
G75*
G03X51666666Y-30000000I-1666666J0D01*
G01*
X47500000Y-30000000D02*
X52500000Y-30000000D01*
X50000000Y-27500000D02*
X50000000Y-32500000D01*
X50000000Y-46000000D02*
X53000000Y-46000000D01*
X50000000Y-30000000D02*
X50000000Y-46000000D01*
X53000000Y-30000000D02*
X50000000Y-30000000D01*
X75000000Y-30000000D02*
X53000000Y-30000000D01*
X75000000Y-46000000D02*
X53000000Y-46000000D01*
X75000000Y-30000000D02*
X75000000Y-46000000D01*
D11*
X60561000Y-41582000D02*
G75*
G03X60561000Y-41582000I-61000J0D01*
G01*
X62500000Y-31450000D02*
X62500000Y-33513000D01*
X62500000Y-44550000D02*
X62500000Y-42487000D01*
X76500000Y-31450000D02*
X69500000Y-31450000D01*
X76500000Y-44550000D02*
X76500000Y-31450000D01*
X69500000Y-44550000D02*
X76500000Y-44550000D01*
D12*
X50700000Y-31855000D02*
X49650000Y-31855000D01*
X50700000Y-44145000D02*
X49650000Y-44145000D01*
X53870000Y-42400000D02*
X53870000Y-33600000D01*
X57790000Y-35928733D02*
X57790000Y-36271267D01*
X58810000Y-35928733D02*
X58810000Y-36271267D01*
X57790000Y-40071267D02*
X57790000Y-39728733D01*
X58810000Y-40071267D02*
X58810000Y-39728733D01*
X59390000Y-38171267D02*
X59390000Y-37828733D01*
X60410000Y-38171267D02*
X60410000Y-37828733D01*
D13*
X67004523Y-38423333D02*
X67911666Y-38423333D01*
X68093095Y-38483809D01*
X68214047Y-38604761D01*
X68274523Y-38786190D01*
X68274523Y-38907142D01*
X67004523Y-37939523D02*
X67004523Y-37153333D01*
X67488333Y-37576666D01*
X67488333Y-37395238D01*
X67548809Y-37274285D01*
X67609285Y-37213809D01*
X67730238Y-37153333D01*
X68032619Y-37153333D01*
X68153571Y-37213809D01*
X68214047Y-37274285D01*
X68274523Y-37395238D01*
X68274523Y-37758095D01*
X68214047Y-37879047D01*
X68153571Y-37939523D01*
D14*
X51352380Y-38333333D02*
X52066666Y-38333333D01*
X52209523Y-38380952D01*
X52304761Y-38476190D01*
X52352380Y-38619047D01*
X52352380Y-38714285D01*
X52352380Y-37333333D02*
X52352380Y-37904761D01*
X52352380Y-37619047D02*
X51352380Y-37619047D01*
X51495238Y-37714285D01*
X51590476Y-37809523D01*
X51638095Y-37904761D01*
X55423809Y-30652380D02*
X55519047Y-30652380D01*
X55614285Y-30700000D01*
X55661904Y-30747619D01*
X55709523Y-30842857D01*
X55757142Y-31033333D01*
X55757142Y-31271428D01*
X55709523Y-31461904D01*
X55661904Y-31557142D01*
X55614285Y-31604761D01*
X55519047Y-31652380D01*
X55423809Y-31652380D01*
X55328571Y-31604761D01*
X55280952Y-31557142D01*
X55233333Y-31461904D01*
X55185714Y-31271428D01*
X55185714Y-31033333D01*
X55233333Y-30842857D01*
X55280952Y-30747619D01*
X55328571Y-30700000D01*
X55423809Y-30652380D01*
X56042857Y-30652380D02*
X56376190Y-31652380D01*
X56709523Y-30652380D01*
X57476190Y-41852380D02*
X57809523Y-42852380D01*
X58142857Y-41852380D01*
X58476190Y-42852380D02*
X58476190Y-42185714D01*
X58476190Y-41852380D02*
X58428571Y-41900000D01*
X58476190Y-41947619D01*
X58523809Y-41900000D01*
X58476190Y-41852380D01*
X58476190Y-41947619D01*
X58952380Y-42185714D02*
X58952380Y-42852380D01*
X58952380Y-42280952D02*
X59000000Y-42233333D01*
X59095238Y-42185714D01*
X59238095Y-42185714D01*
X59333333Y-42233333D01*
X59380952Y-42328571D01*
X59380952Y-42852380D01*
X58233333Y-34152380D02*
X57900000Y-33676190D01*
X57661904Y-34152380D02*
X57661904Y-33152380D01*
X58042857Y-33152380D01*
X58138095Y-33200000D01*
X58185714Y-33247619D01*
X58233333Y-33342857D01*
X58233333Y-33485714D01*
X58185714Y-33580952D01*
X58138095Y-33628571D01*
X58042857Y-33676190D01*
X57661904Y-33676190D01*
X58614285Y-33247619D02*
X58661904Y-33200000D01*
X58757142Y-33152380D01*
X58995238Y-33152380D01*
X59090476Y-33200000D01*
X59138095Y-33247619D01*
X59185714Y-33342857D01*
X59185714Y-33438095D01*
X59138095Y-33580952D01*
X58566666Y-34152380D01*
X59185714Y-34152380D01*
X59833333Y-40952380D02*
X59500000Y-40476190D01*
X59261904Y-40952380D02*
X59261904Y-39952380D01*
X59642857Y-39952380D01*
X59738095Y-40000000D01*
X59785714Y-40047619D01*
X59833333Y-40142857D01*
X59833333Y-40285714D01*
X59785714Y-40380952D01*
X59738095Y-40428571D01*
X59642857Y-40476190D01*
X59261904Y-40476190D01*
X60166666Y-39952380D02*
X60785714Y-39952380D01*
X60452380Y-40333333D01*
X60595238Y-40333333D01*
X60690476Y-40380952D01*
X60738095Y-40428571D01*
X60785714Y-40523809D01*
X60785714Y-40761904D01*
X60738095Y-40857142D01*
X60690476Y-40904761D01*
X60595238Y-40952380D01*
X60309523Y-40952380D01*
X60214285Y-40904761D01*
X60166666Y-40857142D01*
X59833333Y-35952380D02*
X59500000Y-35476190D01*
X59261904Y-35952380D02*
X59261904Y-34952380D01*
X59642857Y-34952380D01*
X59738095Y-35000000D01*
X59785714Y-35047619D01*
X59833333Y-35142857D01*
X59833333Y-35285714D01*
X59785714Y-35380952D01*
X59738095Y-35428571D01*
X59642857Y-35476190D01*
X59261904Y-35476190D01*
X60166666Y-34952380D02*
X60833333Y-34952380D01*
X60404761Y-35952380D01*
M02*
